<?xml version="1.0" encoding="utf-8"?>
<!-- Generator: Adobe Illustrator 26.2.1, SVG Export Plug-In . SVG Version: 6.00 Build 0)  -->
<svg version="1.1" id="Capa_1" xmlns="http://www.w3.org/2000/svg" xmlns:xlink="http://www.w3.org/1999/xlink" x="0px" y="0px"
	 viewBox="0 0 30 30" style="enable-background:new 0 0 30 30;" xml:space="preserve">
<style type="text/css">
	.st0{fill:#0BD07B;}
</style>
<g id="ihrYVN.tif">
	<g>
		<path class="st0" d="M2.33,29.61c2.17-1.96,4.35-3.91,6.52-5.87c0.23-0.21,0.36-0.22,0.6-0.01c2.07,1.89,4.16,3.77,6.25,5.65
			c0.09,0.09,0.22,0.15,0.23,0.3c-1.19,0-2.37,0-3.56,0c-0.3-0.27-0.59-0.55-0.9-0.8c-1.12-0.9-2.36-1.08-3.7-0.56
			c-0.73,0.28-1.24,0.85-1.8,1.36c-1.14,0-2.28,0-3.42,0C2.48,29.68,2.36,29.77,2.33,29.61z"/>
		<path class="st0" d="M17.95,24.23c-6.02-0.01-11.54-3.98-13.3-9.59c-0.9-2.88-0.82-5.72,0.5-8.48c0.6-1.25,1.5-1.63,2.84-1.28
			c1.21,0.32,2.26,0.96,3.29,1.64c1.18,0.76,2.25,1.66,3.3,2.59c0.2,0.18,0.19,0.27-0.04,0.4c-0.35,0.2-0.69,0.41-1.02,0.64
			c-0.19,0.13-0.32,0.11-0.49-0.04c-1.09-0.99-2.24-1.9-3.51-2.65C9.06,7.18,8.59,6.92,8.06,6.82C7.57,6.72,7.3,6.94,7.32,7.44
			c0.04,0.75,0.35,1.42,0.7,2.07c2.46,4.69,6.02,8.32,10.56,11.02c0.47,0.28,0.96,0.52,1.53,0.54c0.39,0.01,0.56-0.16,0.57-0.56
			c0-0.37-0.13-0.72-0.26-1.06c-0.49-1.24-1.22-2.35-2.01-3.42c-0.17-0.22-0.2-0.38-0.03-0.62c0.25-0.35,0.46-0.72,0.68-1.08
			c0.07-0.12,0.14-0.2,0.26-0.04c1.36,1.89,2.67,3.8,3.29,6.09c0.12,0.44,0.15,0.89,0.09,1.34c-0.11,0.83-0.59,1.4-1.3,1.8
			c-1,0.56-2.1,0.7-3.22,0.72C18.09,24.24,18.02,24.23,17.95,24.23z"/>
		<path class="st0" d="M20.13,10.07c-0.48-0.08-0.81,0.15-1.06,0.56c-0.97,1.58-1.97,3.16-2.94,4.74c-0.16,0.26-0.28,0.27-0.52,0.12
			c-1-0.63-1.81-1.44-2.44-2.44c-0.15-0.24-0.12-0.35,0.12-0.5c1.58-0.97,3.16-1.97,4.74-2.94c0.42-0.26,0.61-0.58,0.58-1.08
			c-0.07-1.01,0.66-1.82,1.64-1.84c0.94-0.02,1.73,0.77,1.72,1.71C21.96,9.39,21.17,10.11,20.13,10.07z"/>
		<path class="st0" d="M27.44,8.31c-0.25,0-0.53,0.07-0.74-0.02c-0.27-0.12-0.11-0.44-0.14-0.67c-0.38-2.83-2.3-4.92-5.09-5.5
			c-0.29-0.06-0.59-0.1-0.88-0.1c-0.27,0-0.35-0.11-0.34-0.36c0.02-0.33,0.02-0.66,0-0.99c-0.03-0.36,0.16-0.38,0.43-0.37
			c1.83,0.12,3.46,0.74,4.85,1.95c1.67,1.46,2.56,3.31,2.75,5.51c0.05,0.57,0.05,0.57-0.53,0.57c-0.11,0-0.21,0-0.32,0
			C27.44,8.32,27.44,8.32,27.44,8.31z"/>
		<path class="st0" d="M24.28,8.33c-0.75,0-0.75,0-0.9-0.7C23.1,6.3,22,5.3,20.61,5.16c-0.29-0.03-0.36-0.13-0.35-0.39
			c0.02-0.34,0.01-0.69,0-1.03c-0.01-0.25,0.08-0.33,0.33-0.32c2.15,0.07,4.15,1.83,4.51,3.97C25.26,8.33,25.26,8.33,24.28,8.33z"/>
	</g>
</g>
</svg>
