<svg width="15" height="8" viewBox="0 0 15 8" fill="none" xmlns="http://www.w3.org/2000/svg">
<g clip-path="url(#clip0_1_487)">
<path d="M10.5 4C10.5 5.65685 9.15685 7 7.5 7C5.84315 7 4.5 5.65685 4.5 4C4.5 2.34315 5.84315 1 7.5 1C9.15685 1 10.5 2.34315 10.5 4Z" fill="#5D0CC4"/>
<path d="M7.49067 1C5.40308 1 3.26165 1.93979 1.57583 3.81938C1.52771 3.87362 1.50134 3.93773 1.50005 4.00363C1.49876 4.06952 1.52262 4.13423 1.56859 4.18958C2.8639 5.76667 4.97666 7 7.49067 7C9.97735 7 12.1335 5.76292 13.4312 4.18229C13.4761 4.12802 13.5 4.06485 13.5 4.00031C13.5 3.93578 13.4761 3.8726 13.4312 3.81833C12.1306 2.25583 9.9586 1 7.49067 1Z" stroke="#5D0CC4" stroke-width="1.2" stroke-linecap="round" stroke-linejoin="round"/>
</g>
<defs>
<clipPath id="clip0_1_487">
<rect width="14" height="8" fill="white" transform="translate(0.5)"/>
</clipPath>
</defs>
</svg>
