<svg width="14" height="14" viewBox="0 0 14 14" fill="none" xmlns="http://www.w3.org/2000/svg">
<g clip-path="url(#clip0_1_116)">
<path d="M7.01649 14C5.05215 14 3.08782 14 1.12349 14C0.937416 14 0.751346 13.9599 0.588829 13.8655C0.353297 13.7287 0.171938 13.5399 0.0777254 13.271C0.0235532 13.1176 0.00235532 12.9666 0.00235532 12.8062C0.00235532 9.35693 0.00235532 5.90765 0 2.45838C0 2.2484 0.0400404 2.05022 0.131898 1.8662C0.18607 1.75531 0.263795 1.65622 0.358008 1.57129C0.449865 1.48871 0.551144 1.42265 0.659489 1.36603C0.777254 1.30705 0.902086 1.27402 1.03163 1.27402C1.45087 1.2693 1.87012 1.27402 2.28701 1.27402C2.36474 1.27402 2.38122 1.29289 2.38122 1.37311C2.38122 1.59016 2.38122 1.80722 2.38122 2.02191C2.38122 2.11156 2.38594 2.20594 2.40949 2.29087C2.44717 2.42771 2.50606 2.55747 2.60262 2.66836C2.68506 2.76037 2.78163 2.83587 2.88997 2.89485C2.98183 2.94439 3.08782 2.96563 3.19145 2.98214C3.33984 3.00573 3.48116 2.9727 3.62248 2.92552C3.85565 2.8453 4.00875 2.68015 4.11945 2.46546C4.17833 2.34985 4.19953 2.22717 4.19953 2.10213C4.19953 1.8662 4.19953 1.62791 4.19953 1.39198C4.19953 1.29525 4.22073 1.27638 4.31729 1.27638C6.02019 1.27638 7.72308 1.27638 9.42362 1.27638C9.51312 1.27638 9.60262 1.27166 9.69213 1.2693C9.76279 1.26694 9.80518 1.30469 9.80518 1.38255C9.80518 1.62791 9.80518 1.87328 9.80518 2.11864C9.80518 2.29087 9.857 2.44658 9.95357 2.59286C10.0454 2.73206 10.1679 2.82643 10.3069 2.89957C10.4058 2.95383 10.5212 2.9727 10.6366 2.98686C10.7991 3.00573 10.9569 2.97506 11.0983 2.90428C11.3267 2.79104 11.4916 2.61173 11.5717 2.36165C11.6046 2.25784 11.6164 2.15639 11.6141 2.05022C11.6141 1.83789 11.6141 1.62791 11.6141 1.41558C11.6141 1.28346 11.6211 1.27638 11.7507 1.27638C12.1157 1.27638 12.4785 1.27638 12.8435 1.27638C12.9849 1.27638 13.1262 1.28581 13.2604 1.33536C13.3735 1.37783 13.4795 1.42973 13.5713 1.50759C13.7174 1.62791 13.8398 1.77183 13.9081 1.95113C13.9552 2.07382 13.9953 2.20122 13.9953 2.33806C13.9953 3.50354 13.9953 4.67139 13.9953 5.83688C13.9953 8.17493 13.9953 10.513 13.9953 12.851C13.9953 13.0233 13.96 13.1861 13.9011 13.3441C13.8657 13.4385 13.8022 13.5187 13.7409 13.5966C13.6184 13.757 13.4559 13.8702 13.2651 13.9339C13.1474 13.9741 13.0249 14.0071 12.8977 14.0071C10.9357 14.0071 8.97611 14.0071 7.01413 14.0071L7.01649 14ZM7.00471 4.31986C5.01918 4.31986 3.036 4.31986 1.05047 4.31986C0.975101 4.31986 0.972746 4.32222 0.972746 4.39771C0.972746 7.10145 0.972746 9.80283 0.972746 12.5066C0.972746 12.5396 0.972746 12.575 0.977456 12.608C0.993944 12.7166 1.04341 12.8062 1.12349 12.8817C1.19415 12.9501 1.27187 13.0044 1.37315 13.0185C1.43674 13.028 1.50269 13.028 1.56629 13.028C5.17699 13.028 8.78769 13.028 12.3984 13.028C12.4478 13.028 12.4973 13.028 12.5468 13.028C12.7069 13.028 12.8318 12.9525 12.933 12.8322C13.0131 12.7378 13.0367 12.6245 13.0367 12.5042C13.0367 9.80519 13.0367 7.10617 13.0367 4.40715C13.0367 4.32457 13.0367 4.32222 12.9495 4.32222C10.9687 4.32222 8.98553 4.32222 7.00471 4.32222V4.31986Z" fill="black"/>
<path d="M10.1773 1.2976C10.1773 1.06167 10.1797 0.825746 10.1773 0.589817C10.175 0.401075 10.2409 0.235925 10.3916 0.113242C10.7025 -0.141561 11.1783 0.0613375 11.2325 0.452979C11.2631 0.688907 11.2419 0.938992 11.2419 1.17492C11.2419 1.425 11.2419 1.67509 11.2419 1.92281C11.2419 2.12335 11.2349 2.3121 11.0747 2.45601C10.9357 2.58341 10.7355 2.63768 10.5542 2.5787C10.361 2.51499 10.215 2.33097 10.1867 2.13043C10.149 1.86147 10.182 1.56656 10.182 1.29524L10.1773 1.2976Z" fill="black"/>
<path d="M2.77221 1.29289C2.77221 1.04753 2.77221 0.799803 2.77221 0.552078C2.77221 0.370413 2.84993 0.205263 2.99832 0.0967357C3.31629 -0.136834 3.77557 0.0755022 3.82268 0.462425C3.85094 0.698354 3.82739 0.948438 3.82503 1.18437C3.82503 1.44153 3.82503 1.70105 3.82503 1.95821C3.82503 2.15403 3.79442 2.33806 3.64132 2.47254C3.50707 2.5905 3.32571 2.62825 3.15613 2.58106C2.95121 2.52444 2.80754 2.34749 2.77927 2.13752C2.74394 1.86148 2.77221 1.56657 2.77221 1.29053V1.29289Z" fill="black"/>
<path d="M3.4623 9.33569C3.82738 9.33569 4.1948 9.33569 4.55988 9.33569C4.63996 9.33569 4.6588 9.35221 4.6588 9.43478C4.6588 10.1709 4.6588 10.9046 4.6588 11.6407C4.6588 11.728 4.63289 11.7516 4.54339 11.7516C3.8156 11.7516 3.08545 11.7516 2.35766 11.7516C2.27758 11.7516 2.25402 11.728 2.24931 11.6454C2.2446 11.5676 2.25873 11.4921 2.25873 11.4166C2.25873 10.7843 2.25873 10.152 2.25873 9.51972C2.25873 9.49141 2.25402 9.46309 2.25402 9.43242C2.24931 9.36872 2.27051 9.34277 2.3341 9.34041C2.40005 9.33805 2.466 9.34041 2.53431 9.34041C2.84521 9.34041 3.15375 9.34041 3.46466 9.34041L3.4623 9.33569Z" fill="black"/>
<path d="M9.34824 10.5342C9.34824 10.1685 9.34824 9.80047 9.34824 9.43478C9.34824 9.34984 9.36473 9.33333 9.45188 9.33333C10.1797 9.33333 10.9051 9.33333 11.6329 9.33333C11.7436 9.33333 11.7601 9.35692 11.7554 9.46545C11.7483 9.63532 11.7507 9.80283 11.7507 9.97033C11.7507 10.4634 11.7507 10.9565 11.7507 11.4472C11.7507 11.5227 11.7648 11.5982 11.7507 11.6761C11.7436 11.7256 11.7177 11.7445 11.6729 11.7469C11.6588 11.7469 11.6423 11.7469 11.6258 11.7469C10.9098 11.7469 10.1938 11.7469 9.47543 11.7469C9.46601 11.7469 9.45423 11.7469 9.44481 11.7469C9.37179 11.7469 9.34589 11.7186 9.34589 11.6478C9.34589 11.4685 9.34589 11.2892 9.34589 11.1099C9.34589 10.9164 9.34589 10.7253 9.34589 10.5318L9.34824 10.5342Z" fill="black"/>
<path d="M9.34824 6.81598C9.34824 6.45029 9.34824 6.08224 9.34824 5.71655C9.34824 5.62218 9.36002 5.61038 9.45423 5.61038C10.1797 5.61038 10.9051 5.61038 11.6305 5.61038C11.7436 5.61038 11.753 5.6269 11.753 5.74486C11.753 5.79441 11.7483 5.84395 11.7483 5.8935C11.7483 6.56589 11.7483 7.23593 11.7483 7.90833C11.7483 8.01213 11.7365 8.02629 11.6305 8.02629C10.9051 8.02629 10.1797 8.02629 9.45423 8.02629C9.35766 8.02629 9.34589 8.01449 9.34589 7.91776C9.34589 7.55207 9.34589 7.18403 9.34589 6.81834L9.34824 6.81598Z" fill="black"/>
<path d="M7.00706 9.3357C7.36742 9.3357 7.72778 9.3357 8.0905 9.3357C8.19414 9.3357 8.20591 9.34749 8.20591 9.44894C8.20591 10.1544 8.20591 10.8598 8.20591 11.5652C8.20591 11.5865 8.20591 11.6053 8.20591 11.6266C8.21533 11.7233 8.19178 11.7492 8.09286 11.7492C7.78902 11.7492 7.48283 11.7492 7.179 11.7492C6.75975 11.7492 6.34286 11.7492 5.92361 11.7492C5.78936 11.7492 5.80114 11.7115 5.80114 11.6148C5.80114 11.5369 5.80349 11.4591 5.80349 11.3788C5.80349 10.7418 5.80349 10.1072 5.80349 9.47018C5.80349 9.33334 5.80349 9.33098 5.94481 9.33098C6.29811 9.33098 6.65376 9.33098 7.00706 9.33098V9.3357Z" fill="black"/>
<path d="M5.8035 6.8089C5.8035 6.43849 5.8035 6.06572 5.8035 5.69532C5.8035 5.62454 5.81527 5.61038 5.88593 5.61038C6.63021 5.61038 7.37685 5.61038 8.12113 5.61038C8.18472 5.61038 8.20357 5.62926 8.20357 5.69296C8.20357 6.44321 8.20357 7.19346 8.20357 7.94371C8.20357 7.98854 8.18708 8.01449 8.13997 8.01921C8.11406 8.01921 8.0858 8.02629 8.05989 8.02629C7.34623 8.02629 6.63021 8.02629 5.91655 8.02629C5.81527 8.02629 5.8035 8.01449 5.8035 7.9154C5.8035 7.54736 5.8035 7.17931 5.8035 6.81126V6.8089Z" fill="black"/>
</g>
<defs>
<clipPath id="clip0_1_116">
<rect width="14" height="14" fill="white"/>
</clipPath>
</defs>
</svg>
