<?xml version="1.0" encoding="utf-8"?>
<!-- Generator: Adobe Illustrator 27.8.0, SVG Export Plug-In . SVG Version: 6.00 Build 0)  -->
<svg version="1.1" id="Capa_1" xmlns="http://www.w3.org/2000/svg" xmlns:xlink="http://www.w3.org/1999/xlink" x="0px" y="0px"
	 viewBox="0 0 14 11" style="enable-background:new 0 0 14 11;" xml:space="preserve">
<g>
	<path d="M0,5.3c0-0.1,0-0.2,0-0.3C0.2,4.4,0.5,3.8,1,3.4C1.4,3.1,1.8,3,2.2,2.9c0.2,0,0.5,0,0.7,0c0,0,0.1,0,0.1,0
		c0.5-1,1.2-1.8,2.2-2.2c0.5-0.2,1-0.3,1.5-0.4c0.9-0.1,1.7,0.2,2.5,0.6C10,1.3,10.6,2,11,2.8c0,0.1,0,0.1,0.1,0.1
		c0.9-0.1,1.7,0.2,2.3,0.9C13.8,4.3,14,4.7,14,5.3c0,0,0,0,0,0c0,0.1,0,0.2,0,0.3c0,0.1,0,0.2,0,0.3c-0.1,0.6-0.4,1.2-0.9,1.6
		c-0.4,0.3-0.8,0.5-1.3,0.6c-0.1,0-0.3,0-0.4,0c0,0-0.1,0-0.1,0c-0.5,0.4-1,0.7-1.6,0.8C9.4,9,9.1,9,8.8,9c0,0,0,0,0,0
		c0-0.3,0-0.5,0-0.8c0-0.1,0,0,0.1,0C9.2,8.2,9.6,8.1,10,8c0.4-0.2,0.7-0.4,0.9-0.7c0,0,0.1,0,0.1,0c1,0.2,2-0.5,2.1-1.5
		c0.1-0.9-0.6-1.8-1.5-1.9c-0.4-0.1-0.8,0-1.1,0.2c-0.1,0-0.1,0-0.1,0c-0.1-0.7-0.5-1.4-1-1.9c-0.6-0.5-1.2-0.8-2-0.9
		C6.2,1,5.3,1.4,4.5,2.2C4,2.7,3.7,3.3,3.6,4c0,0.1,0,0.1-0.1,0C2.4,3.4,1.1,4,0.9,5.3c-0.1,0.9,0.5,1.8,1.5,2
		c0.5,0.1,0.9,0,1.3-0.3c0,0,0,0,0.1,0c0.3,0.6,0.8,1,1.4,1.1c0.1,0,0.1,0,0.1,0.1c0,0.3,0,0.5,0,0.8c0,0,0,0.1-0.1,0.1
		C4.5,8.8,4,8.5,3.5,8c0,0-0.1-0.1-0.1,0c-1,0.3-2.1-0.1-2.8-0.9C0.3,6.7,0.1,6.2,0,5.7c0,0,0,0,0,0C0,5.6,0,5.4,0,5.3z"/>
	<path d="M4.4,6.4C4.6,6.1,4.8,5.9,5,5.7C5.7,5.1,6.3,4.4,7,3.8c0,0,0.1,0,0.1,0c0.8,0.8,1.7,1.7,2.5,2.5c0,0,0,0,0,0c0,0,0,0-0.1,0
		c-0.5,0-1.1,0-1.6,0c-0.1,0-0.1,0-0.1,0.1c0,1.4,0,2.8,0,4.2c0,0.1,0,0.1-0.1,0.1c-0.5,0-1.1,0-1.6,0c-0.1,0-0.1,0-0.1-0.1
		c0-1.4,0-2.8,0-4.2c0-0.1,0-0.1-0.1-0.1C5.5,6.4,5,6.4,4.4,6.4C4.4,6.4,4.4,6.4,4.4,6.4z"/>
</g>
</svg>
