<?xml version="1.0" encoding="utf-8"?>
<!-- Generator: Adobe Illustrator 27.8.0, SVG Export Plug-In . SVG Version: 6.00 Build 0)  -->
<svg version="1.1" id="Capa_1" xmlns="http://www.w3.org/2000/svg" xmlns:xlink="http://www.w3.org/1999/xlink" x="0px" y="0px"
	 viewBox="0 0 16 16" style="enable-background:new 0 0 16 16;" xml:space="preserve">
<style type="text/css">
	.st0{fill:#3D8B53;}
</style>
<path id="svgInternalID" class="st0" d="M6.9,4.4c1.1,0,2.1,0.3,2.9,1c0.2,0.2,0.4,0.3,0.6,0.5c0.3,0.2,0.3,0.6,0.1,0.9
	S10,7.4,9.7,7.7C9.4,8,9.1,8,8.8,7.8c-0.3-0.3-0.6-0.6-1-0.7C6.9,6.7,6.1,6.9,5.4,7.6C4.6,8.3,3.9,9,3.2,9.8
	c-0.6,0.6-0.8,1.4-0.5,2.2c0.2,0.8,0.8,1.3,1.6,1.5c0.7,0.2,1.3,0,1.9-0.5c0.2-0.2,0.3-0.3,0.5-0.5c0.3-0.3,0.6-0.3,0.9,0
	s0.6,0.6,0.9,0.9c0.2,0.2,0.3,0.6,0.1,0.8c-0.7,0.7-1.4,1.4-2.4,1.7c-2.9,0.8-5.8-1.1-6.1-4.1C-0.1,10.3,0.3,9.1,1.3,8
	c0.8-0.8,1.6-1.6,2.4-2.4C4.6,4.8,5.7,4.4,6.9,4.4z"/>
<path id="svgInternalID2" class="st0" d="M9.1,11.6c-0.7,0-1.5-0.2-2.1-0.5c-0.5-0.2-1.5-0.8-1.6-1.4C5.3,9.4,5.6,9.1,5.8,8.9
	C6.1,8.6,6.3,8.1,6.7,8c0.6-0.1,1.2,0.8,1.7,1c1.6,0.5,2.8-1,3.8-2.1c0.5-0.5,1.1-1,1.3-1.8c0.1-0.6-0.1-1.3-0.5-1.8s-1-0.8-1.7-0.8
	c-0.8,0-1.3,0.4-1.8,0.9c-0.7,0.7-1.2,0-1.8-0.6C7,2.1,7.7,1.6,8.3,1.1c2-1.7,5.1-1.4,6.7,0.6c0.9,1.2,1.3,2.8,0.8,4.2
	c-0.5,1.8-2.2,3.1-3.5,4.3C11.4,11.1,10.3,11.5,9.1,11.6z"/>
</svg>
