<svg width="16" height="16" viewBox="0 0 16 16" fill="currentColor"  xmlns="http://www.w3.org/2000/svg">
<g  clip-path="url(#clip0_1_205)" fill="currentColor">
<path id="svgInternalID" d="M6.85336 4.37334C7.97336 4.4 8.90669 4.72 9.76003 5.36C9.97336 5.52 10.16 5.68 10.3734 5.86667C10.6667 6.10667 10.6934 6.48 10.4534 6.77334C10.2134 7.09334 9.94669 7.38667 9.68003 7.70667C9.41336 8 9.06669 8.02667 8.77336 7.78667C8.45336 7.52 8.16003 7.22667 7.78669 7.09334C6.88003 6.74667 6.08003 6.90667 5.38669 7.57334C4.64003 8.29334 3.89336 9.04 3.17336 9.78667C2.58669 10.4 2.37336 11.1467 2.64003 11.9733C2.88003 12.7733 3.44003 13.28 4.26669 13.4667C4.96003 13.6267 5.60003 13.4667 6.16003 12.9867C6.34669 12.8267 6.50669 12.64 6.69336 12.48C6.98669 12.1867 7.33336 12.1867 7.62669 12.48C7.92003 12.7733 8.21336 13.04 8.48003 13.3333C8.72003 13.5733 8.74669 13.92 8.53336 14.16C7.86669 14.9067 7.09336 15.52 6.13336 15.8133C3.25336 16.64 0.293361 14.6933 0.0266944 11.76C-0.106639 10.32 0.320028 9.06667 1.33336 8.02667C2.10669 7.22667 2.90669 6.42667 3.70669 5.65334C4.58669 4.8 5.68003 4.4 6.85336 4.37334Z" />
<path id="svgInternalID2" d="M9.14667 11.5733C8.42667 11.5733 7.68 11.4133 7.04 11.0933C6.56 10.8533 5.54667 10.2933 5.41334 9.73334C5.33334 9.38667 5.6 9.12 5.81334 8.88C6.05334 8.61334 6.32 8.10667 6.72 8.02667C7.30667 7.92 7.89334 8.77334 8.42667 8.96C10.0533 9.49334 11.2 7.92 12.2133 6.90667C12.72 6.37334 13.3333 5.86667 13.4933 5.12C13.6267 4.48 13.44 3.81334 13.04 3.30667C12.6133 2.8 12 2.50667 11.3333 2.50667C10.56 2.50667 10.0267 2.93334 9.49334 3.44C8.77334 4.13334 8.26667 3.41334 7.73334 2.85334C7.04 2.13334 7.68 1.6 8.26667 1.12C10.2667 -0.559996 13.3333 -0.319996 14.9867 1.76C15.92 2.93334 16.24 4.56 15.8133 6C15.3067 7.76 13.5733 9.06667 12.2933 10.2933C11.4133 11.1467 10.32 11.5467 9.14667 11.5733Z" />
</g>
</svg>
