<?xml version="1.0" encoding="utf-8"?>
<!-- Generator: Adobe Illustrator 27.8.0, SVG Export Plug-In . SVG Version: 6.00 Build 0)  -->
<svg version="1.1" id="Capa_1" xmlns="http://www.w3.org/2000/svg" xmlns:xlink="http://www.w3.org/1999/xlink" x="0px" y="0px"
	 viewBox="0 0 12.5 12.6" style="enable-background:new 0 0 12.5 12.6;" xml:space="preserve">
<style type="text/css">
	.st0{fill:#F4B302;}
	.st1{fill:#FFFFFF;}
	.st2{fill:#12202E;}
</style>
<g>
	<g>
		<g>
			<path class="st0" d="M10.2,9.7C9.8,9.2,9.4,8.9,8.9,8.8l0,0C8,8.6,7.3,8.1,6.7,7.3c-1.2-1.7-0.7-4,1-5.1c0.1-0.1,0.1-0.1,0.1-0.1
				C7.9,2,7.9,2,8,2c0.5-0.3,0.6-1,0.3-1.5C7.9,0,7.3-0.2,6.8,0.2C6.5,0.4,6.4,0.7,6.4,1.1l0,0C6.2,2,5.7,2.9,4.8,3.5
				C4.1,4,3.2,4.3,2.4,4.1c0,0-0.1,0-0.1,0l0,0l0,0C2,4.1,1.8,4.2,1.6,4.3C1.1,4.7,1,5.3,1.3,5.8c0.2,0.3,0.6,0.5,1,0.4l0,0l0,0l0,0
				c1.4-0.3,2.9,0.3,3.7,1.5c0.5,0.7,0.7,1.7,0.6,2.6c-0.1,0.5,0,1,0.3,1.5c0.6,0.9,1.8,1.1,2.7,0.5C10.5,11.7,10.8,10.5,10.2,9.7z"
				/>
			<circle class="st1" cx="8.6" cy="10.7" r="1.1"/>
			<path class="st2" d="M8.6,9.7C8.3,9.7,8.2,9.8,8,9.9c0.1,0.1,0.2,0.1,0.2,0.3s-0.1,0.3-0.3,0.3c-0.1,0-0.2-0.1-0.3-0.1
				c0,0.1-0.1,0.2-0.1,0.3c0,0.5,0.4,1,1,1c0.5,0,1-0.4,1-1C9.6,10.2,9.2,9.7,8.6,9.7z"/>
			<path class="st1" d="M7.7,10.3c0.1,0.1,0.1,0.1,0.3,0.1c0.2,0,0.3-0.1,0.3-0.3c0-0.1-0.1-0.3-0.2-0.3C7.9,10,7.7,10.2,7.7,10.3z"
				/>
		</g>
		<path class="st1" d="M7.7,10.3c0.1,0.1,0.1,0.1,0.3,0.1c0.2,0,0.3-0.1,0.3-0.3c0-0.1-0.1-0.3-0.2-0.3C7.9,10,7.7,10.2,7.7,10.3z"
			/>
	</g>
</g>
</svg>
