<?xml version="1.0" encoding="utf-8"?>
<!-- Generator: Adobe Illustrator 27.8.0, SVG Export Plug-In . SVG Version: 6.00 Build 0)  -->
<svg version="1.1" id="Capa_1" xmlns="http://www.w3.org/2000/svg" xmlns:xlink="http://www.w3.org/1999/xlink" x="0px" y="0px"
	 viewBox="0 0 60 27.8" style="enable-background:new 0 0 60 27.8;" xml:space="preserve">
<style type="text/css">
	.st0{fill:#F4B302;}
	.st1{fill:#FFFFFF;}
	.st2{fill:#12202E;}
	.st3{fill:#002350;}
</style>
<g>
	<g>
		<g>
			<g>
				<g>
					<path class="st0" d="M59.45,14.16c-0.46-0.66-1.15-1.07-1.89-1.18c0.01,0,0.01,0,0.02,0c-1.27-0.3-2.43-1.05-3.23-2.21
						c-1.69-2.47-1.06-5.83,1.41-7.52c0.08-0.05,0.15-0.1,0.23-0.15C56.1,3.05,56.21,3,56.3,2.93c0.73-0.5,0.92-1.5,0.42-2.23
						s-1.5-0.92-2.23-0.42c-0.45,0.31-0.7,0.81-0.7,1.32c0,0,0,0,0,0c-0.23,1.41-1.01,2.72-2.28,3.59
						c-1.09,0.74-2.35,1.04-3.56,0.92C47.9,6.1,47.85,6.1,47.8,6.09c-0.01,0-0.02,0-0.03,0c0,0,0.01,0,0.01,0
						c-0.31-0.01-0.64,0.07-0.92,0.26c-0.69,0.47-0.87,1.42-0.39,2.11c0.35,0.5,0.94,0.73,1.51,0.64c0,0,0,0,0,0c0,0,0.01,0,0.01,0
						c0.02,0,0.03-0.01,0.05-0.01c2.05-0.39,4.23,0.43,5.48,2.26c0.79,1.16,1.07,2.52,0.89,3.81c-0.16,0.73-0.03,1.51,0.43,2.17
						c0.87,1.28,2.62,1.6,3.89,0.73C60,17.18,60.33,15.43,59.45,14.16z"/>
					<circle class="st1" cx="57.1" cy="15.75" r="1.6"/>
					<path class="st2" d="M57.1,14.32c-0.29,0-0.55,0.09-0.78,0.23c0.17,0.07,0.28,0.24,0.28,0.43c0,0.26-0.21,0.47-0.47,0.47
						c-0.16,0-0.29-0.08-0.38-0.19c-0.06,0.15-0.09,0.32-0.09,0.49c0,0.79,0.64,1.43,1.43,1.43s1.43-0.64,1.43-1.43
						C58.53,14.96,57.89,14.32,57.1,14.32z"/>
					<path class="st1" d="M55.76,15.26c0.09,0.12,0.22,0.19,0.38,0.19c0.26,0,0.47-0.21,0.47-0.47c0-0.19-0.12-0.36-0.28-0.43
						C56.07,14.72,55.87,14.97,55.76,15.26z"/>
				</g>
				<path class="st1" d="M55.76,15.26c0.09,0.12,0.22,0.19,0.38,0.19c0.26,0,0.47-0.21,0.47-0.47c0-0.19-0.12-0.36-0.28-0.43
					C56.07,14.72,55.87,14.97,55.76,15.26z"/>
			</g>
		</g>
	</g>
	<g>
		<rect x="0.06" y="8.59" class="st3" width="0.99" height="9.96"/>
		<polygon class="st3" points="2.54,11.81 2.54,12.69 7.22,12.69 3,17.83 2.42,18.56 9.08,18.56 9.08,17.68 4.41,17.68 9.21,11.81 
					"/>
		<path class="st3" d="M10.87,9.82c-0.17,0-0.33,0.06-0.45,0.19c-0.12,0.12-0.19,0.27-0.19,0.45s0.06,0.33,0.19,0.45
			c0.12,0.12,0.27,0.19,0.45,0.19c0.17,0,0.33-0.06,0.45-0.19c0.12-0.12,0.19-0.27,0.19-0.45s-0.06-0.33-0.19-0.45
			C11.2,9.89,11.05,9.82,10.87,9.82z"/>
		<rect x="10.38" y="11.8" class="st3" width="0.98" height="6.76"/>
		<path class="st3" d="M21.65,11.81c-1.15,0-2.06,0.51-2.72,1.51c-0.66-1-1.57-1.51-2.72-1.51c-0.88,0-1.63,0.31-2.25,0.92
			c-0.61,0.61-0.94,1.38-0.97,2.28v3.55h0.99l0-3.54c0.02-0.63,0.24-1.16,0.67-1.59c0.42-0.42,0.95-0.64,1.56-0.64
			c0.61,0,1.13,0.21,1.56,0.64c0.43,0.42,0.65,0.96,0.67,1.58v3.55h0.98l0-3.55c0.02-0.63,0.24-1.16,0.67-1.58
			c0.42-0.42,0.95-0.64,1.56-0.64c0.61,0,1.14,0.22,1.57,0.64c0.43,0.43,0.65,0.96,0.67,1.58v3.55h0.98v-3.55
			c-0.02-0.9-0.35-1.67-0.96-2.28C23.29,12.12,22.54,11.81,21.65,11.81z"/>
		<path class="st3" d="M32.47,13.06c-0.59-0.71-1.35-1.13-2.27-1.24c-0.94-0.07-1.78,0.17-2.47,0.73c-0.69,0.56-1.11,1.32-1.24,2.27
			c-0.09,0.92,0.16,1.75,0.73,2.47c0.59,0.71,1.35,1.13,2.27,1.24c0.12,0.01,0.24,0.02,0.35,0.02c1.09,0,2.02-0.48,2.76-1.44
			l0.07-0.09l-0.81-0.56l-0.06,0.09c-0.56,0.74-1.29,1.07-2.22,1c-0.33-0.03-0.63-0.13-0.91-0.29l4.08-3.85L32.47,13.06z
			 M31.39,13.35l-3.45,3.26c-0.37-0.5-0.52-1.06-0.46-1.68c0.08-0.63,0.34-1.15,0.79-1.54c0.45-0.4,0.98-0.6,1.58-0.6
			c0.08,0,0.17,0.01,0.25,0.02C30.58,12.86,31.02,13.05,31.39,13.35z"/>
		<path class="st3" d="M40.61,15.01c0-0.01,0-0.02,0-0.03V8.6h-0.98v4.19c-0.65-0.66-1.45-0.99-2.38-0.99
			c-0.92,0-1.72,0.33-2.38,0.99c-0.66,0.66-0.99,1.46-0.99,2.39c0,0.92,0.33,1.72,0.99,2.38c0.66,0.66,1.46,0.99,2.38,0.99
			c0.93,0,1.73-0.33,2.39-0.99c0.66-0.66,0.99-1.46,0.99-2.38c0-0.05,0-0.1-0.01-0.15L40.61,15.01z M37.24,17.57
			c-0.65,0-1.22-0.23-1.69-0.7c-0.46-0.46-0.7-1.03-0.7-1.68c0-0.66,0.24-1.23,0.7-1.69c0.47-0.46,1.03-0.7,1.69-0.7
			c0.62,0,1.17,0.21,1.61,0.63c0.44,0.41,0.7,0.94,0.77,1.57v0.1l0.01,0.11c0,0.65-0.24,1.21-0.7,1.67
			C38.46,17.33,37.9,17.57,37.24,17.57z"/>
		<rect x="42.25" y="11.8" class="st3" width="0.98" height="6.76"/>
		<path class="st3" d="M42.75,9.82c-0.17,0-0.33,0.06-0.45,0.19c-0.12,0.12-0.19,0.27-0.19,0.45s0.06,0.33,0.19,0.45
			c0.12,0.12,0.27,0.19,0.45,0.19c0.17,0,0.33-0.06,0.45-0.19c0.12-0.12,0.19-0.27,0.19-0.45s-0.06-0.33-0.19-0.45
			C43.07,9.89,42.92,9.82,42.75,9.82z"/>
		<path class="st3" d="M50.63,12.8c-0.66-0.66-1.46-0.99-2.39-0.99c-0.92,0-1.72,0.33-2.38,0.99c-0.66,0.66-0.99,1.46-0.99,2.39
			c0,0.92,0.33,1.72,0.99,2.38c0.66,0.66,1.46,0.99,2.38,0.99c0.93,0,1.73-0.33,2.38-0.99v0.99h0.98v-3.13
			c0.01-0.08,0.01-0.16,0.01-0.24C51.62,14.26,51.29,13.45,50.63,12.8z M48.24,17.57c-0.65,0-1.22-0.23-1.69-0.7
			c-0.46-0.46-0.7-1.03-0.7-1.68c0-0.66,0.24-1.23,0.7-1.69c0.47-0.46,1.03-0.7,1.69-0.7c0.66,0,1.23,0.23,1.69,0.7
			s0.7,1.03,0.7,1.69c0,0.65-0.23,1.22-0.7,1.68C49.47,17.33,48.9,17.57,48.24,17.57z"/>
	</g>
</g>
</svg>
