<?xml version="1.0" encoding="utf-8"?>
<!-- Generator: Adobe Illustrator 27.8.0, SVG Export Plug-In . SVG Version: 6.00 Build 0)  -->
<svg version="1.1" id="Capa_1" xmlns="http://www.w3.org/2000/svg" xmlns:xlink="http://www.w3.org/1999/xlink" x="0px" y="0px"
	 viewBox="0 0 60 27.8" style="enable-background:new 0 0 60 27.8;" xml:space="preserve">
<style type="text/css">
	.st0{fill:#F4B302;}
	.st1{fill:#FFFFFF;}
	.st2{fill:#12202E;}
	.st3{fill:#002350;}
</style>
<g>
	<g>
		<g>
			<g>
				<path class="st0" d="M59.5,14.2c-0.5-0.7-1.2-1.1-1.9-1.2l0,0c-1.3-0.3-2.4-1.1-3.2-2.2c-1.7-2.5-1-5.8,1.4-7.5
					C55.9,3.2,56,3.2,56,3.1C56.1,3,56.2,3,56.3,2.9c0.7-0.5,0.9-1.5,0.4-2.2s-1.4-0.9-2.1-0.4c-0.5,0.3-0.7,0.8-0.7,1.3l0,0
					c-0.2,1.4-1,2.7-2.3,3.6c-1.1,0.7-2.4,1.1-3.6,0.9c0,0-0.1,0-0.2,0l0,0l0,0c-0.3,0-0.6,0.1-0.9,0.3c-0.7,0.5-0.9,1.4-0.4,2.1
					C46.8,9,47.4,9.2,48,9.1l0,0l0,0l0,0c2-0.4,4.2,0.4,5.5,2.2c0.8,1.1,1.1,2.5,0.9,3.8c-0.2,0.7,0,1.5,0.4,2.2
					c0.9,1.3,2.6,1.6,3.9,0.7C60,17.2,60.4,15.4,59.5,14.2z"/>
				<circle class="st1" cx="57.1" cy="15.7" r="1.6"/>
				<path class="st2" d="M57.1,14.3c-0.3,0-0.5,0.1-0.8,0.2c0.2,0.1,0.3,0.2,0.3,0.5s-0.2,0.5-0.5,0.5c-0.2,0-0.3-0.1-0.4-0.2
					c0,0.2-0.1,0.3-0.1,0.5c0,0.8,0.6,1.4,1.4,1.4c0.8,0,1.4-0.6,1.4-1.4C58.6,15,58,14.3,57.1,14.3z"/>
				<path class="st1" d="M55.8,15.2c0.1,0.1,0.2,0.2,0.4,0.2c0.3,0,0.5-0.2,0.5-0.5c0-0.2-0.1-0.4-0.3-0.5
					C56.1,14.7,55.9,15,55.8,15.2z"/>
			</g>
			<path class="st1" d="M55.8,15.2c0.1,0.1,0.2,0.2,0.4,0.2c0.3,0,0.5-0.2,0.5-0.5c0-0.2-0.1-0.4-0.3-0.5
				C56.1,14.7,55.9,15,55.8,15.2z"/>
		</g>
	</g>
	<rect y="8.6" class="st3" width="1" height="10"/>
	<polygon class="st3" points="2.5,11.8 2.5,12.7 7.2,12.7 3,17.8 2.4,18.5 9,18.5 9,17.7 4.4,17.7 9.2,11.8 	"/>
	<path class="st3" d="M10.9,9.8c-0.2,0-0.3,0.1-0.4,0.2c-0.1,0.1-0.2,0.3-0.2,0.4s0.1,0.3,0.2,0.4s0.3,0.2,0.4,0.2s0.3-0.1,0.4-0.2
		s0.2-0.3,0.2-0.4s-0.1-0.3-0.2-0.4S11,9.8,10.9,9.8z"/>
	<rect x="10.4" y="11.8" class="st3" width="1" height="6.8"/>
	<path class="st3" d="M21.6,11.8c-1.1,0-2.1,0.5-2.7,1.5c-0.7-1-1.6-1.5-2.7-1.5c-0.9,0-1.6,0.3-2.2,0.9c-0.6,0.6-0.9,1.4-1,2.3v3.6
		h1v-3.5c0-0.6,0.2-1.1,0.7-1.6c0.4-0.4,0.9-0.6,1.6-0.6c0.6,0,1.1,0.2,1.6,0.6c0.4,0.4,0.7,1,0.7,1.6v3.6h1v-3.6
		c0-0.6,0.2-1.1,0.7-1.6c0.4-0.4,0.9-0.6,1.6-0.6c0.6,0,1.1,0.2,1.6,0.6s0.7,1,0.7,1.6v3.6h1v-3.6c0-0.9-0.3-1.7-1-2.3
		C23.3,12.1,22.5,11.8,21.6,11.8z"/>
	<path class="st3" d="M32.5,13.1c-0.6-0.7-1.4-1.1-2.3-1.2c-0.9-0.1-1.8,0.2-2.5,0.7c-0.7,0.6-1.1,1.3-1.2,2.3
		c-0.1,0.9,0.2,1.8,0.7,2.5c0.6,0.7,1.4,1.1,2.3,1.2c0.1,0,0.2,0,0.3,0c1.1,0,2-0.5,2.8-1.4l0.1-0.1l-0.8-0.6v0.1
		c-0.5,0.7-1.3,1.1-2.2,1c-0.3,0-0.6-0.1-0.9-0.3l4.1-3.9L32.5,13.1z M31.4,13.3l-3.5,3.3c-0.4-0.5-0.5-1.1-0.5-1.7
		c0.1-0.6,0.3-1.1,0.8-1.6c0.5-0.4,1-0.6,1.6-0.6c0.1,0,0.2,0,0.3,0C30.6,12.8,31,13,31.4,13.3z"/>
	<path class="st3" d="M40.6,15L40.6,15V8.6h-1v4.2c-0.7-0.7-1.4-1-2.4-1c-0.9,0-1.7,0.3-2.4,1s-1,1.5-1,2.4s0.3,1.7,1,2.4
		s1.5,1,2.4,1s1.7-0.3,2.4-1s1-1.5,1-2.4C40.7,15.1,40.6,15.1,40.6,15L40.6,15z M37.2,17.5c-0.7,0-1.2-0.2-1.7-0.7s-0.7-1-0.7-1.7
		s0.2-1.2,0.7-1.7s1-0.7,1.7-0.7c0.6,0,1.2,0.2,1.6,0.6c0.5,0.4,0.7,0.9,0.8,1.6V15v0.1c0,0.7-0.2,1.2-0.7,1.7
		C38.5,17.3,37.9,17.5,37.2,17.5z"/>
	<rect x="42.3" y="11.8" class="st3" width="1" height="6.8"/>
	<path class="st3" d="M42.8,9.8c-0.2,0-0.3,0.1-0.5,0.2c-0.1,0.1-0.2,0.3-0.2,0.4s0,0.3,0.2,0.4s0.3,0.2,0.5,0.2s0.3-0.1,0.5-0.2
		c0.1-0.1,0.2-0.3,0.2-0.4s0-0.3-0.2-0.4S42.9,9.8,42.8,9.8z"/>
	<path class="st3" d="M50.7,12.8c-0.7-0.7-1.5-1-2.4-1s-1.7,0.3-2.4,1s-1,1.5-1,2.4s0.3,1.7,1,2.4s1.5,1,2.4,1s1.7-0.3,2.4-1v1h1
		v-3.2c0-0.1,0-0.2,0-0.2C51.7,14.2,51.3,13.4,50.7,12.8z M48.3,17.5c-0.7,0-1.2-0.2-1.7-0.7s-0.7-1-0.7-1.7s0.2-1.2,0.7-1.7
		s1-0.7,1.7-0.7s1.2,0.2,1.7,0.7s0.7,1,0.7,1.7s-0.2,1.2-0.7,1.7S48.9,17.5,48.3,17.5z"/>
</g>
</svg>
