<svg width="14" height="14" viewBox="0 0 14 14" fill="none" xmlns="http://www.w3.org/2000/svg">
<g clip-path="url(#clip0_1_127)">
<path d="M-0.000294407 6.98831C-0.0283084 3.19898 3.16762 -0.00701908 7.00554 -1.90763e-05C10.8271 0.00698092 14.002 3.18731 13.9997 6.99765C13.995 10.85 10.8178 14.0093 6.98687 14C3.08125 13.9906 -0.0329774 10.7473 -0.000294407 6.98831ZM7.00554 9.27265C6.40091 9.27265 5.79627 9.27265 5.19163 9.27265C4.82745 9.27265 3.91466 9.09298 3.8493 9.64598C3.77226 10.2946 4.70139 10.136 5.07724 10.136C5.7169 10.136 6.35888 10.136 6.99854 10.136C7.63819 10.136 8.28018 10.136 8.91983 10.136C9.30035 10.136 10.1291 10.2993 10.1361 9.70665C10.1431 9.12098 9.33537 9.27265 8.96652 9.27265C8.31286 9.27265 7.6592 9.27265 7.00554 9.27265ZM9.24666 4.76465C8.76575 4.76465 8.36189 5.17065 8.36189 5.64898C8.36422 6.42131 9.33537 6.81798 9.87698 6.26965C10.4233 5.71898 10.0217 4.76231 9.24666 4.76465ZM5.62585 5.65131C5.62585 5.15898 5.23599 4.76698 4.74575 4.76465C3.96836 4.76465 3.57383 5.72131 4.11776 6.26965C4.6617 6.81565 5.62585 6.42598 5.62585 5.65131Z" fill="#ADADAD"/>
</g>
<defs>
<clipPath id="clip0_1_127">
<rect width="14" height="14" fill="white"/>
</clipPath>
</defs>
</svg>
