<?xml version="1.0" encoding="utf-8"?>
<!-- Generator: Adobe Illustrator 27.8.0, SVG Export Plug-In . SVG Version: 6.00 Build 0)  -->
<svg version="1.1" id="Capa_1" xmlns="http://www.w3.org/2000/svg" xmlns:xlink="http://www.w3.org/1999/xlink" x="0px" y="0px"
	 viewBox="0 0 10 9.6" style="enable-background:new 0 0 10 9.6;" xml:space="preserve">
<style type="text/css">
	.st0{fill:#FFFFFF;stroke:#000000;stroke-width:5.000000e-02;stroke-miterlimit:10;}
	.st1{fill:#FF0000;}
	.st2{fill:#FFFFFF;}
</style>
<rect x="1.3" y="0.2" class="st0" width="7.4" height="9.1"/>
<rect x="0.7" y="3" class="st1" width="8.5" height="4.4"/>
<g>
	<path class="st2" d="M1.8,6.4V3.9h0.8c0.3,0,0.5,0,0.6,0S3.5,4,3.6,4.1c0,0.2,0.1,0.4,0.1,0.6s0,0.3-0.1,0.4
		C3.5,5.2,3.5,5.3,3.4,5.3S3.2,5.4,3.1,5.4c-0.1,0-0.3,0-0.5,0H2.3v0.9L1.8,6.4L1.8,6.4z M2.3,4.4v0.7h0.3c0.2,0,0.3,0,0.4,0
		C3.1,5.1,3.1,5,3.2,5c0-0.1,0.1-0.1,0.1-0.2s0-0.2-0.1-0.2C3,4.4,3,4.4,2.9,4.4s-0.2,0-0.4,0H2.3z"/>
	<path class="st2" d="M4.1,3.9H5c0.2,0,0.4,0,0.5,0S5.8,4,5.9,4.1c0,0.2,0.1,0.4,0.2,0.5C6.2,4.8,6.2,5,6.2,5.2s0,0.4-0.1,0.5
		C6,5.9,5.9,6,5.8,6.1C5.7,6.2,5.6,6.3,5.5,6.3C5.3,6.4,5.2,6.4,5,6.4H4.1V3.9z M4.6,4.4V6H5c0.1,0,0.2,0,0.3,0
		c0.1,0,0.1-0.1,0.2-0.1s0.1-0.1,0.1-0.2s0.1-0.3,0.1-0.5s0-0.3-0.1-0.4c0-0.1-0.1-0.2-0.1-0.2C5.4,4.4,5.3,4.4,5.2,4.4
		c-0.1,0-0.2,0-0.4,0H4.6z"/>
	<path class="st2" d="M6.6,6.4V3.9h1.7v0.4H7.1v0.6h1v0.4h-1v1L6.6,6.4L6.6,6.4z"/>
</g>
</svg>
