<svg width="16" height="21" viewBox="0 0 16 21" fill="none" xmlns="http://www.w3.org/2000/svg">
<path d="M7.9999 4.3415V16.029M10.2222 12.5172C10.1733 12.4862 10.133 12.4434 10.1051 12.3927C10.0772 12.342 10.0625 12.285 10.0624 12.2271V2.9665C10.0624 2.41949 9.84511 1.89489 9.45831 1.50809C9.07152 1.1213 8.54691 0.903999 7.9999 0.903999C7.4529 0.903999 6.92829 1.1213 6.5415 1.50809C6.1547 1.89489 5.9374 2.41949 5.9374 2.9665V12.2271C5.93731 12.2849 5.92266 12.3417 5.8948 12.3923C5.86694 12.443 5.82676 12.4857 5.77799 12.5167C5.16707 12.9147 4.67057 13.4652 4.33756 14.1138C4.00455 14.7624 3.84656 15.4867 3.8792 16.2151C3.92837 17.2915 4.39677 18.3059 5.18424 19.0414C5.9717 19.7769 7.0157 20.1751 8.09296 20.1508C9.17021 20.1265 10.1952 19.6816 10.9487 18.9113C11.7022 18.1411 12.1243 17.1065 12.1249 16.029C12.1252 15.3315 11.9513 14.645 11.6191 14.0317C11.2868 13.4184 10.8067 12.8979 10.2222 12.5172Z" stroke="black" stroke-miterlimit="10" stroke-linecap="round"/>
<path d="M8 18.125C9.13909 18.125 10.0625 17.2016 10.0625 16.0625C10.0625 14.9234 9.13909 14 8 14C6.86091 14 5.9375 14.9234 5.9375 16.0625C5.9375 17.2016 6.86091 18.125 8 18.125Z" fill="#E42E2E"/>
</svg>
