<?xml version="1.0" encoding="utf-8"?>
<!-- Generator: Adobe Illustrator 27.8.0, SVG Export Plug-In . SVG Version: 6.00 Build 0)  -->
<svg version="1.1" id="Capa_1" xmlns="http://www.w3.org/2000/svg" xmlns:xlink="http://www.w3.org/1999/xlink" x="0px" y="0px"
	 viewBox="0 0 14 12.4" style="enable-background:new 0 0 14 12.4;" xml:space="preserve">
<path d="M8.3,7.7C8.3,7.7,8.2,7.7,8.3,7.7c-2.3,0-4.5,0-6.8,0c-0.3,0-0.6-0.1-0.9-0.2C0.2,7.2,0,6.7,0,6.2c0-0.3,0.1-0.6,0.3-0.9
	C0.5,5,0.8,4.9,1.1,4.8c0.1,0,0.3,0,0.4,0c2.2,0,4.4,0,6.7,0c0,0,0.1,0,0.1,0c0,0,0,0,0-0.1C8.1,4.5,8,4.4,7.8,4.2
	c-0.5-0.5-1-1.1-1.6-1.6C6,2.4,5.8,2.1,5.8,1.8c-0.1-0.4,0-0.8,0.3-1.2C6.4,0.2,6.8,0,7.3,0c0.4,0,0.8,0.2,1.1,0.5
	c1.8,1.7,3.5,3.5,5.3,5.3c0.1,0.1,0.2,0.2,0.2,0.2c0.2,0.2,0.2,0.3,0,0.5c-0.2,0.2-0.4,0.4-0.6,0.6c-1.3,1.3-2.5,2.5-3.8,3.8
	c-0.4,0.4-0.7,0.7-1.1,1.1c-0.3,0.3-0.6,0.4-0.9,0.5c-0.5,0.1-0.9-0.1-1.3-0.4c-0.3-0.3-0.4-0.6-0.5-1c0-0.5,0.1-0.8,0.4-1.2
	c0.5-0.5,1-1,1.5-1.5C7.8,8.1,8.1,7.9,8.3,7.7C8.3,7.7,8.3,7.7,8.3,7.7z"/>
</svg>
