<?xml version="1.0" encoding="utf-8"?>
<!-- Generator: Adobe Illustrator 27.8.0, SVG Export Plug-In . SVG Version: 6.00 Build 0)  -->
<svg version="1.1" id="Capa_1" xmlns="http://www.w3.org/2000/svg" xmlns:xlink="http://www.w3.org/1999/xlink" x="0px" y="0px"
	 viewBox="0 0 14 8.7" style="enable-background:new 0 0 14 8.7;" xml:space="preserve">
<g>
	<path d="M7,0.3c1.7,0,3.4,0,5.2,0C13.3,0.3,14,1,14,2.1c0,1.5,0,3,0,4.5c0,1.1-0.7,1.8-1.8,1.8c-3.5,0-6.9,0-10.4,0
		C0.8,8.4,0,7.7,0,6.6c0-1.5,0-3,0-4.6C0,1,0.8,0.3,1.8,0.3C3.5,0.3,5.3,0.3,7,0.3z M7,1.4c-1.7,0-3.4,0-5.2,0
		c-0.5,0-0.7,0.2-0.7,0.7c0,1.5,0,3,0,4.5c0,0.5,0.2,0.7,0.7,0.7c3.4,0,6.9,0,10.3,0c0.5,0,0.7-0.2,0.7-0.7c0-1.5,0-3,0-4.4
		c0-0.5-0.2-0.7-0.7-0.7C10.4,1.4,8.7,1.4,7,1.4z"/>
	<path d="M7,3.7c-1.3,0-2.6,0-3.9,0c-0.1,0-0.2,0-0.3,0c-0.3,0-0.4-0.2-0.5-0.5c0-0.3,0.1-0.5,0.4-0.6c0.1,0,0.2,0,0.3,0
		c2.7,0,5.3,0,8,0c0.5,0,0.7,0.3,0.6,0.7c-0.1,0.2-0.2,0.3-0.4,0.4c-0.1,0-0.2,0-0.3,0C9.6,3.7,8.3,3.7,7,3.7z"/>
	<path d="M5.8,4.9c0.9,0,1.9,0,2.8,0c0.4,0,0.6,0.2,0.6,0.6C9.3,5.8,9.1,6,8.9,6c-0.1,0-0.2,0-0.2,0c-1.9,0-3.7,0-5.6,0
		c-0.1,0-0.2,0-0.3,0C2.5,6,2.3,5.8,2.4,5.5C2.4,5.2,2.6,5,2.8,5c0.1,0,0.2,0,0.3,0C4,4.9,4.9,4.9,5.8,4.9z"/>
</g>
</svg>
