<?xml version="1.0" encoding="utf-8"?>
<!-- Generator: Adobe Illustrator 27.8.0, SVG Export Plug-In . SVG Version: 6.00 Build 0)  -->
<svg version="1.1" id="Capa_1" xmlns="http://www.w3.org/2000/svg" xmlns:xlink="http://www.w3.org/1999/xlink" x="0px" y="0px"
	 viewBox="0 0 14 14" style="enable-background:new 0 0 14 14;" xml:space="preserve">
<g>
	<path d="M0.1,10.2c0.3,0,0.6,0,0.9,0c0.1,0,0.2,0,0.2,0.1c0,0.6,0,1.3,0,1.9c0,0.4,0.2,0.6,0.6,0.6c3.5,0,7,0,10.5,0
		c0.4,0,0.6-0.2,0.6-0.6c0-0.6,0-1.3,0-1.9c0-0.1,0-0.1,0.1-0.1c0.3,0,0.5,0,0.8,0c0.1,0,0.1,0,0.1,0.1c0,0.7,0,1.3,0,2
		c0,0.8-0.6,1.4-1.4,1.6c0,0,0,0-0.1,0c-3.7,0-7.3,0-11,0c0,0,0,0-0.1,0c-0.7-0.1-1.1-0.6-1.3-1.2c0-0.1,0-0.1-0.1-0.2
		C0.1,11.7,0.1,10.9,0.1,10.2z"/>
	<path d="M9.7,7.6c0,0.7,0,1.3,0,2c0,0.8-0.5,1.4-1.3,1.6c-0.1,0-0.1,0-0.2,0c-0.8,0-1.5,0-2.3,0c-0.8,0-1.5-0.7-1.5-1.5
		c0-1.3,0-2.7,0-4c0-0.1,0-0.1,0-0.2c0-0.1,0-0.1-0.1-0.1c-0.5,0-1.1,0-1.6,0c-0.2,0-0.3,0-0.5-0.1C1.9,5.2,1.9,5.2,2,5
		c0.1-0.2,0.2-0.3,0.3-0.4C3.6,3.3,4.9,2,6.2,0.7c0.1-0.1,0.3-0.3,0.4-0.4c0.3-0.2,0.5-0.2,0.7,0c0.1,0.1,0.3,0.2,0.4,0.4
		c1.3,1.3,2.7,2.7,4,4c0.1,0.1,0.2,0.2,0.3,0.4c0,0.1,0,0.2-0.1,0.2c-0.1,0.1-0.3,0.1-0.4,0.1c-0.6,0-1.1,0-1.7,0
		c-0.1,0-0.2,0-0.2,0.2C9.7,6.2,9.7,6.9,9.7,7.6C9.7,7.6,9.7,7.6,9.7,7.6z"/>
</g>
</svg>
