<svg width="11" height="17" viewBox="0 0 11 17" fill="none" xmlns="http://www.w3.org/2000/svg">
<path d="M4.85625 16.1156V14.2312C4.025 14.2125 3.28125 14.1344 2.625 13.9969C1.975 13.8531 1.38125 13.6625 0.84375 13.425V10.95C1.375 11.2062 2.00938 11.4406 2.74688 11.6531C3.48438 11.8594 4.1875 11.9844 4.85625 12.0281V9.12187C3.86875 8.73437 3.07813 8.35937 2.48438 7.99687C1.89688 7.62812 1.47188 7.22187 1.20938 6.77812C0.953125 6.32812 0.825 5.79062 0.825 5.16562C0.825 4.52812 0.99375 3.97812 1.33125 3.51562C1.675 3.04687 2.15 2.67187 2.75625 2.39062C3.3625 2.10937 4.0625 1.93437 4.85625 1.86562V0.431249H6.14063V1.82812C6.86563 1.85312 7.54063 1.9375 8.16563 2.08125C8.79688 2.21875 9.41563 2.42187 10.0219 2.69062L9.14063 4.88437C8.62813 4.67187 8.1125 4.50625 7.59375 4.3875C7.08125 4.26875 6.59688 4.19062 6.14063 4.15312V6.91875C6.83438 7.175 7.49375 7.45312 8.11875 7.75312C8.74375 8.05312 9.25313 8.43437 9.64688 8.89687C10.0406 9.35937 10.2375 9.96562 10.2375 10.7156C10.2375 11.6469 9.89688 12.4281 9.21563 13.0594C8.54063 13.6906 7.51563 14.0687 6.14063 14.1937V16.1156H4.85625ZM6.14063 11.9625C6.57813 11.8875 6.9 11.7594 7.10625 11.5781C7.3125 11.3906 7.41563 11.15 7.41563 10.8562C7.41563 10.6812 7.36875 10.525 7.275 10.3875C7.18125 10.25 7.0375 10.1219 6.84375 10.0031C6.65625 9.87812 6.42188 9.75312 6.14063 9.62812V11.9625ZM4.85625 6.39375V4.19062C4.6 4.22812 4.38125 4.29062 4.2 4.37812C4.01875 4.45937 3.88125 4.56562 3.7875 4.69687C3.69375 4.82812 3.64688 4.98437 3.64688 5.16562C3.64688 5.34687 3.6875 5.50625 3.76875 5.64375C3.85625 5.78125 3.9875 5.90937 4.1625 6.02812C4.34375 6.14687 4.575 6.26875 4.85625 6.39375Z" fill="#F4B302"/>
</svg>
