
<!-- Generator: Adobe Illustrator 27.8.0, SVG Export Plug-In . SVG Version: 6.00 Build 0)  -->
<svg  version="1.1" id="Capa_1" xmlns="http://www.w3.org/2000/svg" xmlns:xlink="http://www.w3.org/1999/xlink" x="0px" y="0px"
	 viewBox="0 0 14 11"  xml:space="preserve">
<g fill="currentColor">
	<path fill="currentColor"  d="M4.6,9.3c-0.1,0-0.1,0-0.2,0c-0.6,0-1.2,0-1.8,0c-1.3,0-2.4-1-2.6-2.2C-0.1,6,0.3,5.2,1.1,4.5c0.1-0.1,0.2-0.1,0.2-0.3
		c0.1-0.9,0.4-1.7,1-2.3C4,0,7.1,0.2,8.5,2.3c0.1,0.1,0.2,0.2,0.4,0.1C10.1,2.1,11.4,2.7,12,4c0.1,0.1,0.2,0.2,0.3,0.3
		C13.3,4.7,14,5.7,14,6.8c0,1.1-0.8,2.1-1.8,2.4c-0.3,0.1-0.7,0.1-1,0.1c-0.5,0-1.1,0-1.6,0c0,0-0.1,0-0.1,0c0,0,0-0.1,0.1-0.1
		C9.7,9,9.8,8.8,10,8.6c0.1-0.1,0.2-0.2,0.3-0.2c0.3,0,0.7,0,1.1,0c0.9,0,1.6-0.7,1.7-1.5C13.2,6,12.6,5.2,11.8,5
		c-0.1,0-0.1,0-0.2,0c-0.2,0-0.2-0.1-0.2-0.2C11,3.5,9.6,2.9,8.5,3.4C8.4,3.5,8.3,3.6,8.2,3.6C8.1,3.6,8.1,3.4,8,3.3
		C7.5,2.2,6.3,1.4,5.1,1.5C3.6,1.5,2,2.9,2.2,4.9c0,0.1,0,0.2-0.1,0.2c-0.6,0.2-1,0.6-1.2,1.3c-0.2,1,0.5,2.1,1.6,2.1
		c0.4,0,0.7,0,1.1,0c0.2,0,0.3,0,0.4,0.2C4.2,8.9,4.4,9.1,4.6,9.3z"/>
	<path fill="currentColor"  d="M9.2,8C8.9,8.4,8.6,8.7,8.3,9c-0.4,0.5-0.8,1-1.3,1.5c-0.1,0.1-0.1,0.1-0.2,0c-0.7-0.8-1.3-1.6-2-2.4c0,0-0.1-0.1,0-0.1
		C4.9,8,5,8,5,8c0.3,0,0.6,0,0.9,0c0.2,0,0.2,0,0.2-0.2c0-1,0-2.1,0-3.1c0-0.2,0-0.2,0.2-0.2c0.4,0,0.9,0,1.3,0c0.1,0,0.2,0,0.2,0.2
		c0,1,0,2.1,0,3.1C7.8,8,7.9,8,8,8C8.4,8,8.8,8,9.2,8z"/>
</g>
</svg>
