<?xml version="1.0" encoding="utf-8"?>
<!-- Generator: Adobe Illustrator 27.1.0, SVG Export Plug-In . SVG Version: 6.00 Build 0)  -->
<svg version="1.1" id="Capa_1" xmlns="http://www.w3.org/2000/svg" xmlns:xlink="http://www.w3.org/1999/xlink" x="0px" y="0px"
	 viewBox="0 0 238 71" style="enable-background:new 0 0 238 71;" xml:space="preserve">
<style type="text/css">
	.st0{fill:#F4B302;}
	.st1{fill:#FFFFFF;}
	.st2{fill:#12202E;}
</style>
<g>
	<g>
		<g>
			<path class="st0" d="M231.9,54.2c-1.7-2.5-4.4-4.1-7.2-4.5c0,0,0,0,0.1,0c-4.8-1.1-9.3-4-12.3-8.4c-6.5-9.4-4-22.3,5.4-28.7
				c0.3-0.2,0.6-0.4,0.9-0.6c0.4-0.2,0.8-0.4,1.2-0.6c2.8-1.9,3.5-5.7,1.6-8.5s-5.7-3.5-8.5-1.6c-1.7,1.2-2.7,3.1-2.7,5c0,0,0,0,0,0
				c-0.9,5.4-3.9,10.4-8.7,13.7c-4.1,2.8-9,4-13.6,3.5c-0.2,0-0.4-0.1-0.6-0.1c0,0-0.1,0-0.1,0c0,0,0,0,0,0c-1.2,0-2.4,0.3-3.5,1
				c-2.6,1.8-3.3,5.4-1.5,8c1.3,1.9,3.6,2.8,5.8,2.4c0,0,0,0,0,0c0,0,0,0,0.1,0c0.1,0,0.1,0,0.2,0c7.8-1.5,16.1,1.6,20.9,8.6
				c3,4.4,4.1,9.6,3.4,14.5c-0.6,2.8-0.1,5.8,1.6,8.3c3.3,4.9,10,6.1,14.9,2.8C234,65.7,235.3,59.1,231.9,54.2z"/>
			<circle class="st1" cx="222.9" cy="60.3" r="6.1"/>
			<path class="st2" d="M222.9,54.8c-1.1,0-2.1,0.3-3,0.9c0.6,0.3,1.1,0.9,1.1,1.7c0,1-0.8,1.8-1.8,1.8c-0.6,0-1.1-0.3-1.4-0.7
				c-0.2,0.6-0.3,1.2-0.3,1.9c0,3,2.4,5.5,5.5,5.5s5.5-2.4,5.5-5.5C228.4,57.3,226,54.8,222.9,54.8z"/>
			<path class="st1" d="M217.8,58.4c0.3,0.4,0.8,0.7,1.4,0.7c1,0,1.8-0.8,1.8-1.8c0-0.7-0.4-1.4-1.1-1.7
				C219,56.3,218.2,57.3,217.8,58.4z"/>
		</g>
		<path class="st1" d="M217.8,58.4c0.3,0.4,0.8,0.7,1.4,0.7c1,0,1.8-0.8,1.8-1.8c0-0.7-0.4-1.4-1.1-1.7
			C219,56.3,218.2,57.3,217.8,58.4z"/>
	</g>
</g>
<rect x="4.9" y="32.9" class="st1" width="3.8" height="38.1"/>
<polygon class="st1" points="14.4,45.2 14.4,48.6 32.3,48.6 16.2,68.2 13.9,71 39.4,71 39.4,67.6 21.6,67.6 39.9,45.2 "/>
<path class="st1" d="M46.3,37.6c-0.7,0-1.2,0.2-1.7,0.7c-0.5,0.5-0.7,1-0.7,1.7s0.2,1.2,0.7,1.7c0.5,0.5,1,0.7,1.7,0.7
	c0.7,0,1.2-0.2,1.7-0.7c0.5-0.5,0.7-1,0.7-1.7s-0.2-1.2-0.7-1.7C47.5,37.9,46.9,37.6,46.3,37.6z"/>
<rect x="44.4" y="45.2" class="st1" width="3.8" height="25.8"/>
<path class="st1" d="M87.5,45.2c-4.4,0-7.9,1.9-10.4,5.8c-2.5-3.8-6-5.8-10.4-5.8c-3.4,0-6.2,1.2-8.6,3.5c-2.3,2.3-3.6,5.3-3.7,8.7
	V71h3.8l0-13.5c0.1-2.4,0.9-4.4,2.5-6.1c1.6-1.6,3.6-2.4,6-2.4c2.3,0,4.3,0.8,6,2.4c1.6,1.6,2.5,3.7,2.6,6V71H79l0-13.6
	c0.1-2.4,0.9-4.4,2.5-6.1c1.6-1.6,3.6-2.4,6-2.4c2.3,0,4.4,0.8,6,2.4c1.6,1.6,2.5,3.7,2.5,6V71h3.8V57.4c-0.1-3.4-1.3-6.4-3.7-8.7
	C93.7,46.4,90.8,45.2,87.5,45.2z"/>
<path class="st1" d="M128.8,50c-2.2-2.7-5.2-4.3-8.7-4.7c-3.6-0.3-6.8,0.7-9.4,2.8c-2.7,2.1-4.2,5.1-4.7,8.7
	c-0.3,3.5,0.6,6.7,2.8,9.4c2.2,2.7,5.2,4.3,8.7,4.7c0.4,0.1,0.9,0.1,1.3,0.1c4.2,0,7.7-1.8,10.6-5.5l0.3-0.4l-3.1-2.2l-0.2,0.3
	c-2.1,2.8-4.9,4.1-8.5,3.8c-1.2-0.1-2.4-0.5-3.5-1.1l15.6-14.7L128.8,50z M124.7,51.1l-13.2,12.5c-1.4-1.9-2-4.1-1.8-6.4
	c0.3-2.4,1.3-4.4,3-5.9c1.7-1.5,3.7-2.3,6-2.3c0.3,0,0.6,0,1,0.1C121.6,49.2,123.3,49.9,124.7,51.1z"/>
<path class="st1" d="M159.9,57.5c0,0,0-0.1,0-0.1V32.9h-3.8v16c-2.5-2.5-5.5-3.8-9.1-3.8c-3.5,0-6.6,1.3-9.1,3.8
	c-2.5,2.5-3.8,5.6-3.8,9.1c0,3.5,1.3,6.6,3.8,9.1c2.5,2.5,5.6,3.8,9.1,3.8c3.5,0,6.6-1.3,9.1-3.8c2.5-2.5,3.8-5.6,3.8-9.1
	C160,57.9,159.9,57.7,159.9,57.5L159.9,57.5z M147,67.2c-2.5,0-4.7-0.9-6.4-2.7c-1.8-1.8-2.7-3.9-2.7-6.4c0-2.5,0.9-4.7,2.7-6.5
	c1.8-1.8,3.9-2.7,6.4-2.7c2.4,0,4.5,0.8,6.2,2.4c1.7,1.6,2.7,3.6,2.9,6v0.4l0,0.4c0,2.5-0.9,4.6-2.7,6.4
	C151.7,66.3,149.5,67.2,147,67.2z"/>
<rect x="166.2" y="45.2" class="st1" width="3.8" height="25.8"/>
<path class="st1" d="M168.1,37.6c-0.7,0-1.2,0.2-1.7,0.7c-0.5,0.5-0.7,1-0.7,1.7s0.2,1.2,0.7,1.7c0.5,0.5,1,0.7,1.7,0.7
	c0.7,0,1.2-0.2,1.7-0.7c0.5-0.5,0.7-1,0.7-1.7s-0.2-1.2-0.7-1.7C169.3,37.9,168.7,37.6,168.1,37.6z"/>
<path class="st1" d="M198.2,49c-2.5-2.5-5.6-3.8-9.1-3.8c-3.5,0-6.6,1.3-9.1,3.8c-2.5,2.5-3.8,5.6-3.8,9.1c0,3.5,1.3,6.6,3.8,9.1
	c2.5,2.5,5.6,3.8,9.1,3.8c3.6,0,6.6-1.3,9.1-3.8V71h3.8V59c0-0.3,0.1-0.6,0.1-0.9C202,54.6,200.7,51.5,198.2,49z M189.1,67.2
	c-2.5,0-4.7-0.9-6.4-2.7c-1.8-1.8-2.7-3.9-2.7-6.4c0-2.5,0.9-4.7,2.7-6.5c1.8-1.8,3.9-2.7,6.4-2.7c2.5,0,4.7,0.9,6.5,2.7
	c1.8,1.8,2.7,3.9,2.7,6.5c0,2.5-0.9,4.7-2.7,6.4C193.8,66.3,191.6,67.2,189.1,67.2z"/>
</svg>
