<?xml version="1.0" encoding="utf-8"?>
<!-- Generator: Adobe Illustrator 27.8.0, SVG Export Plug-In . SVG Version: 6.00 Build 0)  -->
<svg version="1.1" id="Capa_1" xmlns="http://www.w3.org/2000/svg" xmlns:xlink="http://www.w3.org/1999/xlink" x="0px" y="0px"
	 viewBox="0 0 60 30" style="enable-background:new 0 0 60 30;" xml:space="preserve">
<style type="text/css">
	.st0{fill:#F4B302;}
	.st1{fill:#FFFFFF;}
	.st2{fill:#12202E;}
	.st3{fill:#002350;}
</style>
<g>
	<g>
		<g>
			<g>
				<path class="st0" d="M59.5,16.45c-0.45-0.66-1.15-1.07-1.89-1.18c0,0,0,0,0.03,0c-1.26-0.29-2.44-1.05-3.22-2.2
					c-1.7-2.46-1.05-5.85,1.42-7.52c0.08-0.05,0.16-0.1,0.24-0.16c0.1-0.05,0.21-0.1,0.31-0.16C57.11,4.73,57.3,3.73,56.8,3
					s-1.49-0.92-2.23-0.42c-0.45,0.31-0.71,0.81-0.71,1.31l0,0c-0.24,1.42-1.02,2.73-2.28,3.59c-1.07,0.73-2.36,1.05-3.56,0.92
					c-0.05,0-0.1-0.03-0.16-0.03h-0.03l0,0c-0.31,0-0.63,0.08-0.92,0.26c-0.68,0.47-0.86,1.42-0.39,2.1
					c0.34,0.5,0.94,0.73,1.52,0.63l0,0c0,0,0,0,0.03,0s0.03,0,0.05,0c2.04-0.39,4.22,0.42,5.48,2.25c0.79,1.15,1.07,2.52,0.89,3.8
					c-0.16,0.73-0.03,1.52,0.42,2.18c0.86,1.28,2.62,1.6,3.91,0.73C60.05,19.46,60.39,17.73,59.5,16.45z"/>
				<circle class="st1" cx="57.14" cy="18.05" r="1.6"/>
				<path class="st2" d="M57.14,16.6c-0.29,0-0.55,0.08-0.79,0.24c0.16,0.08,0.29,0.24,0.29,0.45c0,0.26-0.21,0.47-0.47,0.47
					c-0.16,0-0.29-0.08-0.37-0.18c-0.05,0.16-0.08,0.31-0.08,0.5c0,0.79,0.63,1.44,1.44,1.44c0.81,0,1.44-0.63,1.44-1.44
					C58.58,17.26,57.95,16.6,57.14,16.6z"/>
				<path class="st1" d="M55.8,17.55c0.08,0.1,0.21,0.18,0.37,0.18c0.26,0,0.47-0.21,0.47-0.47c0-0.18-0.1-0.37-0.29-0.45
					C56.12,17,55.91,17.26,55.8,17.55z"/>
			</g>
			<path class="st1" d="M55.8,17.55c0.08,0.1,0.21,0.18,0.37,0.18c0.26,0,0.47-0.21,0.47-0.47c0-0.18-0.1-0.37-0.29-0.45
				C56.12,17,55.91,17.26,55.8,17.55z"/>
		</g>
	</g>
	<rect y="10.86" class="st3" width="1" height="9.99"/>
	<polygon class="st3" points="2.49,14.09 2.49,14.98 7.18,14.98 2.96,20.12 2.36,20.85 9.04,20.85 9.04,19.96 4.38,19.96 
		9.17,14.09 	"/>
	<path class="st3" d="M10.85,12.1c-0.18,0-0.31,0.05-0.45,0.18c-0.13,0.13-0.18,0.26-0.18,0.45s0.05,0.31,0.18,0.45
		s0.26,0.18,0.45,0.18s0.31-0.05,0.45-0.18s0.18-0.26,0.18-0.45s-0.05-0.31-0.18-0.45C11.17,12.17,11.01,12.1,10.85,12.1z"/>
	<rect x="10.35" y="14.09" class="st3" width="1" height="6.76"/>
	<path class="st3" d="M21.65,14.09c-1.15,0-2.07,0.5-2.73,1.52c-0.66-1-1.57-1.52-2.73-1.52c-0.89,0-1.63,0.31-2.25,0.92
		c-0.6,0.6-0.94,1.39-0.97,2.28v3.56h1v-3.54c0.03-0.63,0.24-1.15,0.66-1.6c0.42-0.42,0.94-0.63,1.57-0.63
		c0.6,0,1.13,0.21,1.57,0.63c0.42,0.42,0.66,0.97,0.68,1.57v3.56h0.97v-3.56c0.03-0.63,0.24-1.15,0.66-1.6
		c0.42-0.42,0.94-0.63,1.57-0.63c0.6,0,1.15,0.21,1.57,0.63c0.42,0.42,0.66,0.97,0.66,1.57v3.59h1v-3.56
		c-0.03-0.89-0.34-1.68-0.97-2.28C23.28,14.4,22.52,14.09,21.65,14.09z"/>
	<path class="st3" d="M32.48,15.35c-0.58-0.71-1.36-1.13-2.28-1.23c-0.94-0.08-1.78,0.18-2.46,0.73c-0.71,0.55-1.1,1.34-1.23,2.28
		c-0.08,0.92,0.16,1.76,0.73,2.46c0.58,0.71,1.36,1.13,2.28,1.23c0.1,0.03,0.24,0.03,0.34,0.03c1.1,0,2.02-0.47,2.78-1.44l0.08-0.1
		l-0.81-0.58l-0.05,0.08c-0.55,0.73-1.28,1.07-2.23,1c-0.31-0.03-0.63-0.13-0.92-0.29l4.09-3.85L32.48,15.35z M31.4,15.63
		l-3.46,3.28c-0.37-0.5-0.52-1.07-0.47-1.68c0.08-0.63,0.34-1.15,0.79-1.55c0.45-0.39,0.97-0.6,1.57-0.6c0.08,0,0.16,0,0.26,0.03
		C30.59,15.14,31.03,15.32,31.4,15.63z"/>
	<path class="st3" d="M40.63,17.31v-0.03v-6.42h-1v4.19c-0.66-0.66-1.44-1-2.39-1c-0.92,0-1.73,0.34-2.39,1
		c-0.66,0.66-1,1.47-1,2.39c0,0.92,0.34,1.73,1,2.39c0.66,0.66,1.47,1,2.39,1s1.73-0.34,2.39-1c0.66-0.66,1-1.47,1-2.39
		C40.65,17.42,40.63,17.36,40.63,17.31L40.63,17.31z M37.25,19.85c-0.66,0-1.23-0.24-1.68-0.71c-0.47-0.47-0.71-1.02-0.71-1.68
		s0.24-1.23,0.71-1.7c0.47-0.47,1.02-0.71,1.68-0.71c0.63,0,1.18,0.21,1.63,0.63c0.45,0.42,0.71,0.94,0.76,1.57v0.1v0.1
		c0,0.66-0.24,1.21-0.71,1.68C38.48,19.62,37.9,19.85,37.25,19.85z"/>
	<rect x="42.28" y="14.09" class="st3" width="1" height="6.76"/>
	<path class="st3" d="M42.78,12.1c-0.18,0-0.31,0.05-0.45,0.18c-0.13,0.13-0.18,0.26-0.18,0.45s0.05,0.31,0.18,0.45
		s0.26,0.18,0.45,0.18s0.31-0.05,0.45-0.18c0.13-0.13,0.18-0.26,0.18-0.45s-0.05-0.31-0.18-0.45C43.09,12.17,42.93,12.1,42.78,12.1z
		"/>
	<path class="st3" d="M50.67,15.08c-0.66-0.66-1.47-1-2.39-1s-1.73,0.34-2.39,1c-0.66,0.66-1,1.47-1,2.39c0,0.92,0.34,1.73,1,2.39
		c0.66,0.66,1.47,1,2.39,1c0.94,0,1.73-0.34,2.39-1v1h1V17.7c0-0.08,0.03-0.16,0.03-0.24C51.66,16.55,51.32,15.74,50.67,15.08z
		 M48.28,19.85c-0.66,0-1.23-0.24-1.68-0.71c-0.47-0.47-0.71-1.02-0.71-1.68s0.24-1.23,0.71-1.7c0.47-0.47,1.02-0.71,1.68-0.71
		c0.66,0,1.23,0.24,1.7,0.71c0.47,0.47,0.71,1.02,0.71,1.7c0,0.66-0.24,1.23-0.71,1.68C49.51,19.62,48.94,19.85,48.28,19.85z"/>
</g>
</svg>
