<?xml version="1.0" encoding="utf-8"?>
<!-- Generator: Adobe Illustrator 27.8.0, SVG Export Plug-In . SVG Version: 6.00 Build 0)  -->
<svg version="1.1" id="Capa_1" xmlns="http://www.w3.org/2000/svg" xmlns:xlink="http://www.w3.org/1999/xlink" x="0px" y="0px"
	 viewBox="0 0 10 12.4" style="enable-background:new 0 0 10 12.4;" xml:space="preserve">
<style type="text/css">
	.st0{fill:#FFFFFF;stroke:#000000;stroke-width:5.000000e-02;stroke-miterlimit:10;}
	.st1{fill:#FF0000;}
	.st2{fill:#FFFFFF;}
</style>
<rect x="1.3" y="1.5" class="st0" width="7.4" height="9.1"/>
<rect x="0.7" y="4.3" class="st1" width="8.5" height="4.4"/>
<g>
	<path class="st2" d="M1.8,7.7V5.2h0.8c0.3,0,0.5,0,0.6,0c0.1,0,0.3,0.1,0.4,0.2C3.6,5.6,3.7,5.8,3.7,6c0,0.2,0,0.3-0.1,0.4
		C3.5,6.5,3.5,6.6,3.4,6.6S3.2,6.7,3.1,6.7c-0.1,0-0.3,0-0.5,0H2.3v0.9H1.8z M2.3,5.7v0.7h0.3c0.2,0,0.3,0,0.4,0
		c0.1,0,0.1-0.1,0.2-0.1c0-0.1,0.1-0.1,0.1-0.2c0-0.1,0-0.2-0.1-0.2C3,5.7,3,5.7,2.9,5.7c-0.1,0-0.2,0-0.4,0H2.3z"/>
	<path class="st2" d="M4.1,5.2H5c0.2,0,0.4,0,0.5,0c0.1,0,0.3,0.1,0.4,0.2C5.9,5.6,6,5.8,6.1,5.9c0.1,0.2,0.1,0.4,0.1,0.6
		c0,0.2,0,0.4-0.1,0.5C6,7.2,5.9,7.3,5.8,7.4C5.7,7.5,5.6,7.6,5.5,7.6C5.3,7.7,5.2,7.7,5,7.7H4.1V5.2z M4.6,5.7v1.6h0.4
		c0.1,0,0.2,0,0.3,0c0.1,0,0.1-0.1,0.2-0.1c0.1,0,0.1-0.1,0.1-0.2c0-0.1,0.1-0.3,0.1-0.5s0-0.3-0.1-0.4c0-0.1-0.1-0.2-0.1-0.2
		C5.4,5.7,5.3,5.7,5.2,5.7c-0.1,0-0.2,0-0.4,0H4.6z"/>
	<path class="st2" d="M6.6,7.7V5.2h1.7v0.4H7.1v0.6h1v0.4h-1v1H6.6z"/>
</g>
</svg>
