<?xml version="1.0" encoding="utf-8"?>
<!-- Generator: Adobe Illustrator 27.8.0, SVG Export Plug-In . SVG Version: 6.00 Build 0)  -->
<svg version="1.1" id="Capa_1" xmlns="http://www.w3.org/2000/svg" xmlns:xlink="http://www.w3.org/1999/xlink" x="0px" y="0px"
	 viewBox="0 0 14 14" style="enable-background:new 0 0 14 14;" xml:space="preserve">
<style type="text/css">
	.st0{clip-path:url(#SVGID_00000052068279231872752330000003233891882199403703_);}
	.st1{fill:#3D8B53;}
</style>
<g>
	<defs>
		<rect id="SVGID_1_" width="14" height="14"/>
	</defs>
	<clipPath id="SVGID_00000157266264958928559950000006245138066822010496_">
		<use xlink:href="#SVGID_1_"  style="overflow:visible;"/>
	</clipPath>
	<g style="clip-path:url(#SVGID_00000157266264958928559950000006245138066822010496_);">
		<path class="st1" d="M0,7c0-3.8,3.2-7,7-7c3.8,0,7,3.2,7,7c0,3.9-3.2,7-7,7C3.1,14,0,10.7,0,7z M7,9.5c-0.6,0-1.2,0-1.9-0.4
			C4.4,8.8,3.9,8.4,3.6,8.7C3.4,9.1,4.6,9.9,5,10c0.7,0.3,1.4,0.4,2,0.4c0.6,0,1.7-0.2,2.3-0.5c0.8-0.4,1.5-0.9,1.2-1.3
			c-0.3-0.3-1,0.3-1.6,0.6C8.3,9.4,7.7,9.5,7,9.5z M9.2,4.8c-0.5,0-0.9,0.4-0.9,0.9c0,0.8,1,1.2,1.5,0.6C10.4,5.7,10,4.8,9.2,4.8z
			 M5.6,5.7c0-0.5-0.4-0.9-0.9-0.9c-0.8,0-1.2,1-0.6,1.5C4.7,6.8,5.6,6.4,5.6,5.7z"/>
	</g>
</g>
</svg>
