<?xml version="1.0" encoding="utf-8"?>
<!-- Generator: Adobe Illustrator 27.8.0, SVG Export Plug-In . SVG Version: 6.00 Build 0)  -->
<svg version="1.1" id="Capa_1" xmlns="http://www.w3.org/2000/svg" xmlns:xlink="http://www.w3.org/1999/xlink" x="0px" y="0px"
	 viewBox="0 0 14 14" style="enable-background:new 0 0 14 14;" xml:space="preserve">
<g>
	<path d="M0.2,3c0-0.6,0-1.3,0-1.9c0-0.8,0.4-1.1,1.2-1.1c1.2,0,2.3,0,3.5,0C5.6-0.1,6,0.3,6,1.1c0,1.3,0,2.6,0,3.8
		C6,5.6,5.6,6,4.9,6C3.7,6,2.5,6,1.3,6C0.6,6,0.2,5.6,0.2,4.8C0.2,4.2,0.2,3.6,0.2,3z M4.5,3c0-0.1,0-0.2,0-0.3c0-1.2,0-1.2-1.2-1.2
		c-1.6,0-1.6,0-1.6,1.7c0,1.5,0,1.5,1.4,1.5C4.5,4.5,4.5,4.5,4.5,3z"/>
	<path d="M7.1,8.6c2.1,0,4.1,0,6.2,0c0.6,0,0.7,0.2,0.7,0.7c0,0.4,0.1,0.8-0.6,0.8c-4.2,0-8.4,0-12.5,0c-0.7,0-0.6-0.3-0.6-0.8
		c0-0.5,0-0.8,0.7-0.7C2.9,8.7,5,8.6,7.1,8.6z"/>
	<path d="M7,14.2c-2.1,0-4.2,0-6.3,0c-0.7,0-0.6-0.3-0.6-0.7c0-0.4-0.1-0.8,0.6-0.8c4.2,0,8.4,0,12.7,0c0.8,0,0.5,0.5,0.6,0.8
		c0.1,0.4,0,0.7-0.6,0.7C11.2,14.2,9.1,14.2,7,14.2z"/>
	<path d="M11.1,1.9c-0.7,0-1.4,0-2.2,0C8.4,2,8.3,1.8,8.4,1.3c0-0.2,0-0.3,0-0.5c0-0.3,0.1-0.4,0.4-0.4c1.6,0,3.2,0,4.9,0
		c0.2,0,0.3,0.1,0.4,0.3c0.1,1.1,0.1,1.2-1,1.2C12.3,1.9,11.7,1.9,11.1,1.9z"/>
	<path d="M11.2,4.5c0.8,0,1.5,0,2.3,0c0.4,0,0.5,0.1,0.5,0.5c0,0.2,0,0.4,0,0.6C14,5.9,13.9,6,13.6,6C12,6,10.4,6,8.7,6
		C8.5,6,8.3,5.9,8.4,5.7c0-0.2,0-0.3,0-0.5C8.3,4.7,8.4,4.5,8.9,4.5C9.7,4.6,10.4,4.5,11.2,4.5z"/>
</g>
</svg>
