<?xml version="1.0" encoding="utf-8"?>
<!-- Generator: Adobe Illustrator 27.8.0, SVG Export Plug-In . SVG Version: 6.00 Build 0)  -->
<svg version="1.1" id="Capa_1" xmlns="http://www.w3.org/2000/svg" xmlns:xlink="http://www.w3.org/1999/xlink" x="0px" y="0px"
	 viewBox="0 0 14 14" style="enable-background:new 0 0 14 14;" xml:space="preserve">
<g>
	<path d="M6.9,6.1c-1.4,0-2.8,0-4.2,0c-1.5,0-2.4-1-2.4-2.4c0-0.4,0-0.9,0-1.3c0-1.2,1-2.3,2.2-2.3c3,0,6,0,8.9,0
		c1.2,0,2.2,1,2.2,2.2c0,0.5,0,1,0,1.5c0,1.3-1,2.3-2.3,2.3C9.9,6.1,8.4,6.1,6.9,6.1z M7,4.2c1.1,0,2.2,0,3.3,0
		c1.6,0,1.5,0.1,1.5-1.5c0-0.7-0.1-0.8-0.8-0.8c-2.4,0-4.9,0-7.3,0C2,1.9,2.2,1.8,2.2,3.5c0,0.6,0.2,0.7,0.8,0.7
		C4.3,4.2,5.6,4.2,7,4.2z"/>
	<path d="M4.7,10.8c0,0.5-0.2,0.9-0.5,1.2c-0.5,0.5-1,1.1-1.6,1.6c-0.4,0.4-1,0.4-1.4,0.1c-0.4-0.4-0.4-0.9,0.1-1.4
		c0.3-0.4,0.7-0.7,1.1-1.1c0.3-0.2,0.2-0.4,0-0.6C2,10.3,1.6,9.9,1.3,9.5c-0.4-0.4-0.4-1,0-1.3c0.4-0.4,0.9-0.4,1.3,0
		c0.6,0.5,1.1,1.1,1.7,1.7C4.6,10.2,4.7,10.5,4.7,10.8z"/>
	<path d="M9.7,10c-0.8,0-1.7,0-2.5,0c-0.7,0-1.1-0.4-1.1-0.9c0-0.6,0.4-0.9,1.1-0.9c1.7,0,3.3,0,5,0c0.7,0,1.1,0.4,1.1,0.9
		c0,0.6-0.4,0.9-1.1,0.9C11.3,10,10.5,10,9.7,10z"/>
	<path d="M9.7,12.1c0.8,0,1.6,0,2.5,0c0.7,0,1.1,0.4,1,1c0,0.5-0.4,0.9-1,0.9c-1.7,0-3.4,0-5.1,0c-0.7,0-1.1-0.4-1-1
		c0-0.5,0.4-0.9,1-0.9C8,12.1,8.8,12.1,9.7,12.1z"/>
</g>
</svg>
