<?xml version="1.0" encoding="utf-8"?>
<!-- Generator: Adobe Illustrator 27.8.0, SVG Export Plug-In . SVG Version: 6.00 Build 0)  -->
<svg version="1.1" id="Capa_1" xmlns="http://www.w3.org/2000/svg" xmlns:xlink="http://www.w3.org/1999/xlink" x="0px" y="0px"
	 viewBox="0 0 14 11" style="enable-background:new 0 0 14 11;" xml:space="preserve">
<g>
	<path d="M0,6.3c0-0.2,0.1-0.4,0.1-0.5C0.5,4.3,1.6,3.3,3,3.1C3.1,3.1,3.1,3,3.2,3C3.9,1.8,4.9,1,6.2,0.8c2.3-0.4,4.5,1.1,5,3.3
		c0,0.1,0.1,0.1,0.2,0.1c1.4,0.2,2.4,1.1,2.6,2.5c0,0,0,0,0,0.1c0,0.2,0,0.3,0,0.5c0,0,0,0.1,0,0.1C13.8,9,12.6,10,11,10
		c-2.5,0-5,0-7.5,0c-1.6,0-2.9-1-3.4-2.4C0.1,7.4,0.1,7.1,0,6.8C0,6.6,0,6.5,0,6.3z M7.3,8.9c1.2,0,2.5,0,3.7,0c0.1,0,0.2,0,0.3,0
		c0.8-0.1,1.5-0.8,1.5-1.7c0-0.8-0.6-1.6-1.4-1.7c-0.3-0.1-0.7-0.1-1-0.1c-0.1,0-0.1,0-0.2-0.1c0-0.3-0.1-0.5-0.2-0.8
		C9.8,3.2,9,2.3,7.7,2C6.4,1.7,5.3,2.1,4.4,3.2C4.2,3.4,4.1,3.8,3.9,4.1c0,0.1-0.1,0.1-0.1,0.1c-0.2,0-0.4,0-0.5,0.1
		C2,4.3,1,5.6,1.2,6.9c0.2,1.2,1.1,2,2.4,2C4.8,8.9,6,8.9,7.3,8.9z"/>
	<path d="M4.7,6c0-0.1,0-0.1,0.1-0.1c0.7-0.7,1.4-1.4,2.1-2.1C7,3.7,7,3.6,7.1,3.7c0.7,0.7,1.4,1.4,2.2,2.2c0,0,0,0,0,0.1
		c0,0-0.1,0-0.1,0C8.8,6,8.4,6,8,6C7.9,6,7.8,6,7.8,6.1c0,0.5,0,1,0,1.5c0,0.1,0,0.1-0.1,0.1c-0.5,0-1,0-1.4,0c-0.1,0-0.1,0-0.1-0.1
		c0-0.5,0-1,0-1.5C6.2,6,6.1,6,6,6C5.6,6,5.2,6,4.7,6z"/>
</g>
</svg>
